<svg xmlns="http://www.w3.org/2000/svg" xmlns:xlink="http://www.w3.org/1999/xlink" width="87" height="87" viewBox="0 0 87 87">
  <defs>
    <filter id="Ellipse_51" x="0" y="0" width="87" height="87" filterUnits="userSpaceOnUse">
      <feOffset dy="5" input="SourceAlpha"/>
      <feGaussianBlur stdDeviation="7.5" result="blur"/>
      <feFlood flood-opacity="0.149"/>
      <feComposite operator="in" in2="blur"/>
      <feComposite in="SourceGraphic"/>
    </filter>
  </defs>
  <g id="Behance" transform="translate(-1190.5 -3767.5)">
    <g id="Group_4874" data-name="Group 4874" transform="translate(274 135)">
      <g transform="matrix(1, 0, 0, 1, 916.5, 3632.5)" filter="url(#Ellipse_51)">
        <circle id="Ellipse_51-2" data-name="Ellipse 51" cx="21" cy="21" r="21" transform="translate(22.5 17.5)" fill="#fff"/>
      </g>
    </g>
    <g id="iconfinder_social_behance_1356546" transform="translate(1189.22 3764.875)">
      <path id="Path_8043" data-name="Path 8043" d="M66.347,94.545c-.464.037-.7-9.981.115-10.149a14.993,14.993,0,0,1,5.934.069c1.959.619,1.232,3.7-.321,4.17-1.57.476-2.367.235-2.36.733s1.1.344,2.314.458c2.978.126,2.7,4.542-.252,4.7a21.4,21.4,0,0,1-3.849,0" transform="translate(-30.517 -48.51)" fill="none" stroke="#74b9ad" stroke-linecap="round" stroke-linejoin="round" stroke-miterlimit="10" stroke-width="1.5"/>
      <path id="Path_8044" data-name="Path 8044" d="M145.171,111.43c1.451.023,4.113.023,4.353-.344s.229-3.07-2.864-3.185-3.915,1.807-3.849,3.964c.057,1.879.309,3.528,3.6,3.528s3.185-1.787,3.185-1.787" transform="translate(-95.465 -68.756)" fill="none" stroke="#74b9ad" stroke-linecap="round" stroke-linejoin="round" stroke-miterlimit="10" stroke-width="1.5"/>
      <path id="Path_8045" data-name="Path 8045" d="M152.833,91.043c1.39-.038,2.78.061,4.17.023" transform="translate(-104.183 -54.872)" fill="none" stroke="#74b9ad" stroke-linecap="round" stroke-linejoin="round" stroke-miterlimit="10" stroke-width="1.5"/>
    </g>
  </g>
</svg>
